<svg width="66" height="66" viewBox="0 0 66 66" fill="none" xmlns="http://www.w3.org/2000/svg">
<path d="M18.9403 52.0346C19.3938 52.0346 19.8421 52.0286 20.2853 52.0167C20.756 53.5646 21.4554 55.0217 22.3837 56.3872L22.3848 56.3887C24.2869 59.1413 26.9544 61.3092 30.3768 62.8959L30.3777 62.8963C33.8043 64.4682 37.8154 65.25 42.4043 65.25C46.9932 65.25 51.0043 64.4682 54.4309 62.8963L54.4318 62.8959C57.8544 61.3091 60.5128 59.1409 62.3961 56.3878C64.2995 53.6164 65.25 50.467 65.25 46.9477V14.3227C65.25 13.6324 64.6904 13.0727 64 13.0727H58.9601C58.2698 13.0727 57.7101 13.6324 57.7101 14.3227V46.4517C57.7101 48.8872 57.0975 51.0463 55.8766 52.937L55.8762 52.9376C54.6746 54.8109 52.934 56.2943 50.6429 57.3845C48.3561 58.4562 45.6125 58.9971 42.4043 58.9971C39.1962 58.9971 36.4527 58.4563 34.1659 57.3846C31.8938 56.2944 30.1524 54.8107 28.9315 52.9361C28.5524 52.349 28.2319 51.7359 27.9703 51.0967C30.189 50.5901 32.2311 49.8778 34.0957 48.9588L34.0964 48.9584C38.264 46.8876 41.4436 43.9277 43.627 40.0797L43.6272 40.0793C45.8097 36.216 46.8956 31.6174 46.8956 26.2931C46.8956 21.0022 45.8193 16.4448 43.6556 12.6309C41.492 8.80063 38.3794 5.86516 34.3248 3.82683C30.2702 1.77193 25.4039 0.75 19.7351 0.75H2C1.30964 0.75 0.75 1.30965 0.75 2V50.7846C0.75 51.4749 1.30964 52.0346 2 52.0346H18.9403ZM30.3228 43.6766C29.3318 44.1846 28.2572 44.6126 27.0985 44.96V14.3227C27.0985 13.6324 26.5388 13.0727 25.8485 13.0727H20.8086C20.1182 13.0727 19.5586 13.6324 19.5586 14.3227V46.0653C19.2059 46.0746 18.8484 46.0792 18.4861 46.0792H9.03987C8.62565 46.0792 8.28987 45.7434 8.28987 45.3292V7.45537C8.28987 7.04116 8.62565 6.70537 9.03987 6.70537H19.2809C23.7947 6.70537 27.5462 7.50234 30.5475 9.08193L30.5485 9.08242C33.5508 10.6463 35.8027 12.8907 37.3113 15.8192L37.3115 15.8197C38.8222 18.736 39.5828 22.2243 39.5828 26.2931C39.5828 30.3948 38.8128 33.9161 37.2832 36.8656C35.7566 39.8091 33.4396 42.0789 30.3228 43.6766Z" fill="white" stroke="black" stroke-width="0.5" stroke-linejoin="round"/>
</svg>
