<svg width="16" height="18" viewBox="0 0 16 18" fill="none" xmlns="http://www.w3.org/2000/svg">
<mask id="path-1-outside-1_16_11" maskUnits="userSpaceOnUse" x="0" y="0" width="16" height="18" fill="black">
<rect fill="white" width="16" height="18"/>
<path d="M4.81534 13.3636H2C1.44772 13.3636 1 12.9159 1 12.3636V2C1 1.44771 1.44772 1 2 1H4.98438C6.18371 1 7.20999 1.24751 8.06321 1.74254C8.91643 2.23355 9.57043 2.93987 10.0252 3.86151C10.48 4.77912 10.7074 5.87784 10.7074 7.15767C10.7074 8.44555 10.478 9.55433 10.0192 10.484C9.56037 11.4097 8.89228 12.122 8.01491 12.6211C7.13755 13.1161 6.07102 13.3636 4.81534 13.3636ZM2.49716 11.0355C2.49716 11.5878 2.94487 12.0355 3.49716 12.0355H4.71875C5.741 12.0355 6.58819 11.8383 7.2603 11.4439C7.93241 11.0495 8.43348 10.488 8.76349 9.75959C9.09351 9.03113 9.25852 8.16383 9.25852 7.15767C9.25852 6.15956 9.09553 5.30031 8.76953 4.5799C8.44354 3.85547 7.95656 3.30007 7.30859 2.91371C6.66063 2.52332 5.85369 2.32812 4.88778 2.32812H3.49716C2.94487 2.32812 2.49716 2.77584 2.49716 3.32813V11.0355Z"/>
<path d="M13.1136 4.74858C13.1136 4.33515 13.4488 4 13.8622 4V4C14.2756 4 14.6108 4.33515 14.6108 4.74858V12.1861C14.6108 13.0313 14.4116 13.7859 14.0131 14.4499C13.6187 15.11 13.0613 15.6312 12.3409 16.0135C11.6205 16.3918 10.7753 16.581 9.8054 16.581C8.83546 16.581 7.99029 16.3918 7.26989 16.0135C6.54948 15.6312 5.99006 15.11 5.59162 14.4499C5.19721 13.7859 5 13.0313 5 12.1861V4.74858C5 4.33515 5.33515 4 5.74858 4V4C6.16201 4 6.49716 4.33515 6.49716 4.74858V12.0653C6.49716 12.669 6.62997 13.2063 6.8956 13.6772C7.16122 14.1441 7.53954 14.5123 8.03054 14.782C8.52557 15.0476 9.11719 15.1804 9.8054 15.1804C10.4936 15.1804 11.0852 15.0476 11.5803 14.782C12.0753 14.5123 12.4536 14.1441 12.7152 13.6772C12.9808 13.2063 13.1136 12.669 13.1136 12.0653V4.74858Z"/>
</mask>
<path d="M4.81534 13.3636H2C1.44772 13.3636 1 12.9159 1 12.3636V2C1 1.44771 1.44772 1 2 1H4.98438C6.18371 1 7.20999 1.24751 8.06321 1.74254C8.91643 2.23355 9.57043 2.93987 10.0252 3.86151C10.48 4.77912 10.7074 5.87784 10.7074 7.15767C10.7074 8.44555 10.478 9.55433 10.0192 10.484C9.56037 11.4097 8.89228 12.122 8.01491 12.6211C7.13755 13.1161 6.07102 13.3636 4.81534 13.3636ZM2.49716 11.0355C2.49716 11.5878 2.94487 12.0355 3.49716 12.0355H4.71875C5.741 12.0355 6.58819 11.8383 7.2603 11.4439C7.93241 11.0495 8.43348 10.488 8.76349 9.75959C9.09351 9.03113 9.25852 8.16383 9.25852 7.15767C9.25852 6.15956 9.09553 5.30031 8.76953 4.5799C8.44354 3.85547 7.95656 3.30007 7.30859 2.91371C6.66063 2.52332 5.85369 2.32812 4.88778 2.32812H3.49716C2.94487 2.32812 2.49716 2.77584 2.49716 3.32813V11.0355Z" fill="white"/>
<path d="M13.1136 4.74858C13.1136 4.33515 13.4488 4 13.8622 4V4C14.2756 4 14.6108 4.33515 14.6108 4.74858V12.1861C14.6108 13.0313 14.4116 13.7859 14.0131 14.4499C13.6187 15.11 13.0613 15.6312 12.3409 16.0135C11.6205 16.3918 10.7753 16.581 9.8054 16.581C8.83546 16.581 7.99029 16.3918 7.26989 16.0135C6.54948 15.6312 5.99006 15.11 5.59162 14.4499C5.19721 13.7859 5 13.0313 5 12.1861V4.74858C5 4.33515 5.33515 4 5.74858 4V4C6.16201 4 6.49716 4.33515 6.49716 4.74858V12.0653C6.49716 12.669 6.62997 13.2063 6.8956 13.6772C7.16122 14.1441 7.53954 14.5123 8.03054 14.782C8.52557 15.0476 9.11719 15.1804 9.8054 15.1804C10.4936 15.1804 11.0852 15.0476 11.5803 14.782C12.0753 14.5123 12.4536 14.1441 12.7152 13.6772C12.9808 13.2063 13.1136 12.669 13.1136 12.0653V4.74858Z" fill="white"/>
<path d="M4.81534 13.3636H2C1.44772 13.3636 1 12.9159 1 12.3636V2C1 1.44771 1.44772 1 2 1H4.98438C6.18371 1 7.20999 1.24751 8.06321 1.74254C8.91643 2.23355 9.57043 2.93987 10.0252 3.86151C10.48 4.77912 10.7074 5.87784 10.7074 7.15767C10.7074 8.44555 10.478 9.55433 10.0192 10.484C9.56037 11.4097 8.89228 12.122 8.01491 12.6211C7.13755 13.1161 6.07102 13.3636 4.81534 13.3636ZM2.49716 11.0355C2.49716 11.5878 2.94487 12.0355 3.49716 12.0355H4.71875C5.741 12.0355 6.58819 11.8383 7.2603 11.4439C7.93241 11.0495 8.43348 10.488 8.76349 9.75959C9.09351 9.03113 9.25852 8.16383 9.25852 7.15767C9.25852 6.15956 9.09553 5.30031 8.76953 4.5799C8.44354 3.85547 7.95656 3.30007 7.30859 2.91371C6.66063 2.52332 5.85369 2.32812 4.88778 2.32812H3.49716C2.94487 2.32812 2.49716 2.77584 2.49716 3.32813V11.0355Z" stroke="black" stroke-linejoin="round" mask="url(#path-1-outside-1_16_11)"/>
<path d="M13.1136 4.74858C13.1136 4.33515 13.4488 4 13.8622 4V4C14.2756 4 14.6108 4.33515 14.6108 4.74858V12.1861C14.6108 13.0313 14.4116 13.7859 14.0131 14.4499C13.6187 15.11 13.0613 15.6312 12.3409 16.0135C11.6205 16.3918 10.7753 16.581 9.8054 16.581C8.83546 16.581 7.99029 16.3918 7.26989 16.0135C6.54948 15.6312 5.99006 15.11 5.59162 14.4499C5.19721 13.7859 5 13.0313 5 12.1861V4.74858C5 4.33515 5.33515 4 5.74858 4V4C6.16201 4 6.49716 4.33515 6.49716 4.74858V12.0653C6.49716 12.669 6.62997 13.2063 6.8956 13.6772C7.16122 14.1441 7.53954 14.5123 8.03054 14.782C8.52557 15.0476 9.11719 15.1804 9.8054 15.1804C10.4936 15.1804 11.0852 15.0476 11.5803 14.782C12.0753 14.5123 12.4536 14.1441 12.7152 13.6772C12.9808 13.2063 13.1136 12.669 13.1136 12.0653V4.74858Z" stroke="black" stroke-linejoin="round" mask="url(#path-1-outside-1_16_11)"/>
</svg>
