<svg id="visual" viewBox="0 0 1920 1080" width="1920" height="1080" xmlns="http://www.w3.org/2000/svg" xmlns:xlink="http://www.w3.org/1999/xlink" version="1.1"><rect x="0" y="0" width="1920" height="1080" fill="#001220"></rect><path d="M0 685L80 697.7C160 710.3 320 735.7 480 744.8C640 754 800 747 960 749.5C1120 752 1280 764 1440 765.5C1600 767 1760 758 1840 753.5L1920 749L1920 1081L1840 1081C1760 1081 1600 1081 1440 1081C1280 1081 1120 1081 960 1081C800 1081 640 1081 480 1081C320 1081 160 1081 80 1081L0 1081Z" fill="#5b5b5b"></path><path d="M0 817L80 807.7C160 798.3 320 779.7 480 767.7C640 755.7 800 750.3 960 756.7C1120 763 1280 781 1440 773.2C1600 765.3 1760 731.7 1840 714.8L1920 698L1920 1081L1840 1081C1760 1081 1600 1081 1440 1081C1280 1081 1120 1081 960 1081C800 1081 640 1081 480 1081C320 1081 160 1081 80 1081L0 1081Z" fill="#696969"></path><path d="M0 785L80 781.5C160 778 320 771 480 768C640 765 800 766 960 783.7C1120 801.3 1280 835.7 1440 846.7C1600 857.7 1760 845.3 1840 839.2L1920 833L1920 1081L1840 1081C1760 1081 1600 1081 1440 1081C1280 1081 1120 1081 960 1081C800 1081 640 1081 480 1081C320 1081 160 1081 80 1081L0 1081Z" fill="#767676"></path><path d="M0 790L80 785.3C160 780.7 320 771.3 480 779.2C640 787 800 812 960 813.5C1120 815 1280 793 1440 801.5C1600 810 1760 849 1840 868.5L1920 888L1920 1081L1840 1081C1760 1081 1600 1081 1440 1081C1280 1081 1120 1081 960 1081C800 1081 640 1081 480 1081C320 1081 160 1081 80 1081L0 1081Z" fill="#848484"></path><path d="M0 806L80 809C160 812 320 818 480 822.2C640 826.3 800 828.7 960 836C1120 843.3 1280 855.7 1440 867.3C1600 879 1760 890 1840 895.5L1920 901L1920 1081L1840 1081C1760 1081 1600 1081 1440 1081C1280 1081 1120 1081 960 1081C800 1081 640 1081 480 1081C320 1081 160 1081 80 1081L0 1081Z" fill="#939393"></path><path d="M0 869L80 874.2C160 879.3 320 889.7 480 895.3C640 901 800 902 960 895.5C1120 889 1280 875 1440 868.7C1600 862.3 1760 863.7 1840 864.3L1920 865L1920 1081L1840 1081C1760 1081 1600 1081 1440 1081C1280 1081 1120 1081 960 1081C800 1081 640 1081 480 1081C320 1081 160 1081 80 1081L0 1081Z" fill="#a2a2a2"></path><path d="M0 917L80 911.3C160 905.7 320 894.3 480 884.2C640 874 800 865 960 868.3C1120 871.7 1280 887.3 1440 901.8C1600 916.3 1760 929.7 1840 936.3L1920 943L1920 1081L1840 1081C1760 1081 1600 1081 1440 1081C1280 1081 1120 1081 960 1081C800 1081 640 1081 480 1081C320 1081 160 1081 80 1081L0 1081Z" fill="#b1b1b1"></path><path d="M0 932L80 928.3C160 924.7 320 917.3 480 923.5C640 929.7 800 949.3 960 955.5C1120 961.7 1280 954.3 1440 947.8C1600 941.3 1760 935.7 1840 932.8L1920 930L1920 1081L1840 1081C1760 1081 1600 1081 1440 1081C1280 1081 1120 1081 960 1081C800 1081 640 1081 480 1081C320 1081 160 1081 80 1081L0 1081Z" fill="#c0c0c0"></path><path d="M0 965L80 963.3C160 961.7 320 958.3 480 957.8C640 957.3 800 959.7 960 958.5C1120 957.3 1280 952.7 1440 947C1600 941.3 1760 934.7 1840 931.3L1920 928L1920 1081L1840 1081C1760 1081 1600 1081 1440 1081C1280 1081 1120 1081 960 1081C800 1081 640 1081 480 1081C320 1081 160 1081 80 1081L0 1081Z" fill="#cfcfcf"></path><path d="M0 985L80 986.2C160 987.3 320 989.7 480 990C640 990.3 800 988.7 960 990.8C1120 993 1280 999 1440 995.5C1600 992 1760 979 1840 972.5L1920 966L1920 1081L1840 1081C1760 1081 1600 1081 1440 1081C1280 1081 1120 1081 960 1081C800 1081 640 1081 480 1081C320 1081 160 1081 80 1081L0 1081Z" fill="#dfdfdf"></path><path d="M0 1005L80 1003.3C160 1001.7 320 998.3 480 996.8C640 995.3 800 995.7 960 994.2C1120 992.7 1280 989.3 1440 991.7C1600 994 1760 1002 1840 1006L1920 1010L1920 1081L1840 1081C1760 1081 1600 1081 1440 1081C1280 1081 1120 1081 960 1081C800 1081 640 1081 480 1081C320 1081 160 1081 80 1081L0 1081Z" fill="#efefef"></path><path d="M0 1023L80 1022.5C160 1022 320 1021 480 1021.5C640 1022 800 1024 960 1023.3C1120 1022.7 1280 1019.3 1440 1019.2C1600 1019 1760 1022 1840 1023.5L1920 1025L1920 1081L1840 1081C1760 1081 1600 1081 1440 1081C1280 1081 1120 1081 960 1081C800 1081 640 1081 480 1081C320 1081 160 1081 80 1081L0 1081Z" fill="#ffffff"></path></svg>