<svg id="visual" viewBox="0 0 1920 1080" width="1920" height="1080" xmlns="http://www.w3.org/2000/svg" xmlns:xlink="http://www.w3.org/1999/xlink" version="1.1"><rect x="0" y="0" width="1920" height="1080" fill="#001220"></rect><path d="M0 692L80 710.3C160 728.7 320 765.3 480 773.5C640 781.7 800 761.3 960 728.5C1120 695.7 1280 650.3 1440 648.8C1600 647.3 1760 689.7 1840 710.8L1920 732L1920 1081L1840 1081C1760 1081 1600 1081 1440 1081C1280 1081 1120 1081 960 1081C800 1081 640 1081 480 1081C320 1081 160 1081 80 1081L0 1081Z" fill="#5b5b5b"></path><path d="M0 678L80 679.5C160 681 320 684 480 706.7C640 729.3 800 771.7 960 767C1120 762.3 1280 710.7 1440 716.2C1600 721.7 1760 784.3 1840 815.7L1920 847L1920 1081L1840 1081C1760 1081 1600 1081 1440 1081C1280 1081 1120 1081 960 1081C800 1081 640 1081 480 1081C320 1081 160 1081 80 1081L0 1081Z" fill="#696969"></path><path d="M0 841L80 834C160 827 320 813 480 824.3C640 835.7 800 872.3 960 896.2C1120 920 1280 931 1440 912.3C1600 893.7 1760 845.3 1840 821.2L1920 797L1920 1081L1840 1081C1760 1081 1600 1081 1440 1081C1280 1081 1120 1081 960 1081C800 1081 640 1081 480 1081C320 1081 160 1081 80 1081L0 1081Z" fill="#767676"></path><path d="M0 742L80 771.8C160 801.7 320 861.3 480 869.5C640 877.7 800 834.3 960 808.5C1120 782.7 1280 774.3 1440 761C1600 747.7 1760 729.3 1840 720.2L1920 711L1920 1081L1840 1081C1760 1081 1600 1081 1440 1081C1280 1081 1120 1081 960 1081C800 1081 640 1081 480 1081C320 1081 160 1081 80 1081L0 1081Z" fill="#848484"></path><path d="M0 858L80 859C160 860 320 862 480 853.2C640 844.3 800 824.7 960 818.3C1120 812 1280 819 1440 839.2C1600 859.3 1760 892.7 1840 909.3L1920 926L1920 1081L1840 1081C1760 1081 1600 1081 1440 1081C1280 1081 1120 1081 960 1081C800 1081 640 1081 480 1081C320 1081 160 1081 80 1081L0 1081Z" fill="#939393"></path><path d="M0 789L80 806.7C160 824.3 320 859.7 480 868.2C640 876.7 800 858.3 960 841.7C1120 825 1280 810 1440 822.2C1600 834.3 1760 873.7 1840 893.3L1920 913L1920 1081L1840 1081C1760 1081 1600 1081 1440 1081C1280 1081 1120 1081 960 1081C800 1081 640 1081 480 1081C320 1081 160 1081 80 1081L0 1081Z" fill="#a2a2a2"></path><path d="M0 921L80 913C160 905 320 889 480 900.2C640 911.3 800 949.7 960 962C1120 974.3 1280 960.7 1440 951.8C1600 943 1760 939 1840 937L1920 935L1920 1081L1840 1081C1760 1081 1600 1081 1440 1081C1280 1081 1120 1081 960 1081C800 1081 640 1081 480 1081C320 1081 160 1081 80 1081L0 1081Z" fill="#b1b1b1"></path><path d="M0 982L80 962.7C160 943.3 320 904.7 480 884C640 863.3 800 860.7 960 881.2C1120 901.7 1280 945.3 1440 969.2C1600 993 1760 997 1840 999L1920 1001L1920 1081L1840 1081C1760 1081 1600 1081 1440 1081C1280 1081 1120 1081 960 1081C800 1081 640 1081 480 1081C320 1081 160 1081 80 1081L0 1081Z" fill="#c0c0c0"></path><path d="M0 929L80 938.3C160 947.7 320 966.3 480 968.2C640 970 800 955 960 946.7C1120 938.3 1280 936.7 1440 948.2C1600 959.7 1760 984.3 1840 996.7L1920 1009L1920 1081L1840 1081C1760 1081 1600 1081 1440 1081C1280 1081 1120 1081 960 1081C800 1081 640 1081 480 1081C320 1081 160 1081 80 1081L0 1081Z" fill="#cfcfcf"></path><path d="M0 994L80 994.2C160 994.3 320 994.7 480 994.5C640 994.3 800 993.7 960 994.8C1120 996 1280 999 1440 1000.5C1600 1002 1760 1002 1840 1002L1920 1002L1920 1081L1840 1081C1760 1081 1600 1081 1440 1081C1280 1081 1120 1081 960 1081C800 1081 640 1081 480 1081C320 1081 160 1081 80 1081L0 1081Z" fill="#dfdfdf"></path><path d="M0 1028L80 1025.5C160 1023 320 1018 480 1007.8C640 997.7 800 982.3 960 974.8C1120 967.3 1280 967.7 1440 969.5C1600 971.3 1760 974.7 1840 976.3L1920 978L1920 1081L1840 1081C1760 1081 1600 1081 1440 1081C1280 1081 1120 1081 960 1081C800 1081 640 1081 480 1081C320 1081 160 1081 80 1081L0 1081Z" fill="#efefef"></path><path d="M0 1033L80 1031C160 1029 320 1025 480 1023C640 1021 800 1021 960 1018.5C1120 1016 1280 1011 1440 1013.5C1600 1016 1760 1026 1840 1031L1920 1036L1920 1081L1840 1081C1760 1081 1600 1081 1440 1081C1280 1081 1120 1081 960 1081C800 1081 640 1081 480 1081C320 1081 160 1081 80 1081L0 1081Z" fill="#ffffff"></path></svg>