<svg id="visual" viewBox="0 0 1920 1080" width="1920" height="1080" xmlns="http://www.w3.org/2000/svg" xmlns:xlink="http://www.w3.org/1999/xlink" version="1.1"><rect x="0" y="0" width="1920" height="1080" fill="#001220"></rect><path d="M0 745L80 733.2C160 721.3 320 697.7 480 688.7C640 679.7 800 685.3 960 704.7C1120 724 1280 757 1440 775.3C1600 793.7 1760 797.3 1840 799.2L1920 801L1920 1081L1840 1081C1760 1081 1600 1081 1440 1081C1280 1081 1120 1081 960 1081C800 1081 640 1081 480 1081C320 1081 160 1081 80 1081L0 1081Z" fill="#5b5b5b"></path><path d="M0 847L80 844.2C160 841.3 320 835.7 480 827.3C640 819 800 808 960 797C1120 786 1280 775 1440 757.7C1600 740.3 1760 716.7 1840 704.8L1920 693L1920 1081L1840 1081C1760 1081 1600 1081 1440 1081C1280 1081 1120 1081 960 1081C800 1081 640 1081 480 1081C320 1081 160 1081 80 1081L0 1081Z" fill="#696969"></path><path d="M0 818L80 814.7C160 811.3 320 804.7 480 806.5C640 808.3 800 818.7 960 808.8C1120 799 1280 769 1440 752.5C1600 736 1760 733 1840 731.5L1920 730L1920 1081L1840 1081C1760 1081 1600 1081 1440 1081C1280 1081 1120 1081 960 1081C800 1081 640 1081 480 1081C320 1081 160 1081 80 1081L0 1081Z" fill="#767676"></path><path d="M0 867L80 869.2C160 871.3 320 875.7 480 861.5C640 847.3 800 814.7 960 814.3C1120 814 1280 846 1440 860.7C1600 875.3 1760 872.7 1840 871.3L1920 870L1920 1081L1840 1081C1760 1081 1600 1081 1440 1081C1280 1081 1120 1081 960 1081C800 1081 640 1081 480 1081C320 1081 160 1081 80 1081L0 1081Z" fill="#848484"></path><path d="M0 915L80 899.2C160 883.3 320 851.7 480 843.5C640 835.3 800 850.7 960 848.8C1120 847 1280 828 1440 820.8C1600 813.7 1760 818.3 1840 820.7L1920 823L1920 1081L1840 1081C1760 1081 1600 1081 1440 1081C1280 1081 1120 1081 960 1081C800 1081 640 1081 480 1081C320 1081 160 1081 80 1081L0 1081Z" fill="#939393"></path><path d="M0 923L80 922.3C160 921.7 320 920.3 480 915C640 909.7 800 900.3 960 885.5C1120 870.7 1280 850.3 1440 848.7C1600 847 1760 864 1840 872.5L1920 881L1920 1081L1840 1081C1760 1081 1600 1081 1440 1081C1280 1081 1120 1081 960 1081C800 1081 640 1081 480 1081C320 1081 160 1081 80 1081L0 1081Z" fill="#a2a2a2"></path><path d="M0 891L80 890.5C160 890 320 889 480 892.5C640 896 800 904 960 911.5C1120 919 1280 926 1440 920.8C1600 915.7 1760 898.3 1840 889.7L1920 881L1920 1081L1840 1081C1760 1081 1600 1081 1440 1081C1280 1081 1120 1081 960 1081C800 1081 640 1081 480 1081C320 1081 160 1081 80 1081L0 1081Z" fill="#b1b1b1"></path><path d="M0 969L80 965.5C160 962 320 955 480 941.2C640 927.3 800 906.7 960 900.2C1120 893.7 1280 901.3 1440 904.2C1600 907 1760 905 1840 904L1920 903L1920 1081L1840 1081C1760 1081 1600 1081 1440 1081C1280 1081 1120 1081 960 1081C800 1081 640 1081 480 1081C320 1081 160 1081 80 1081L0 1081Z" fill="#c0c0c0"></path><path d="M0 991L80 987.7C160 984.3 320 977.7 480 973.5C640 969.3 800 967.7 960 966.7C1120 965.7 1280 965.3 1440 965.5C1600 965.7 1760 966.3 1840 966.7L1920 967L1920 1081L1840 1081C1760 1081 1600 1081 1440 1081C1280 1081 1120 1081 960 1081C800 1081 640 1081 480 1081C320 1081 160 1081 80 1081L0 1081Z" fill="#cfcfcf"></path><path d="M0 989L80 983.5C160 978 320 967 480 961C640 955 800 954 960 955.5C1120 957 1280 961 1440 961.8C1600 962.7 1760 960.3 1840 959.2L1920 958L1920 1081L1840 1081C1760 1081 1600 1081 1440 1081C1280 1081 1120 1081 960 1081C800 1081 640 1081 480 1081C320 1081 160 1081 80 1081L0 1081Z" fill="#dfdfdf"></path><path d="M0 1026L80 1018.7C160 1011.3 320 996.7 480 996C640 995.3 800 1008.7 960 1011.2C1120 1013.7 1280 1005.3 1440 1002.3C1600 999.3 1760 1001.7 1840 1002.8L1920 1004L1920 1081L1840 1081C1760 1081 1600 1081 1440 1081C1280 1081 1120 1081 960 1081C800 1081 640 1081 480 1081C320 1081 160 1081 80 1081L0 1081Z" fill="#efefef"></path><path d="M0 1026L80 1025C160 1024 320 1022 480 1023.3C640 1024.7 800 1029.3 960 1031.7C1120 1034 1280 1034 1440 1034.3C1600 1034.7 1760 1035.3 1840 1035.7L1920 1036L1920 1081L1840 1081C1760 1081 1600 1081 1440 1081C1280 1081 1120 1081 960 1081C800 1081 640 1081 480 1081C320 1081 160 1081 80 1081L0 1081Z" fill="#ffffff"></path></svg>