<svg id="visual" viewBox="0 0 1920 1080" width="1920" height="1080" xmlns="http://www.w3.org/2000/svg" xmlns:xlink="http://www.w3.org/1999/xlink" version="1.1"><rect x="0" y="0" width="1920" height="1080" fill="#001220"></rect><path d="M0 788L80 797C160 806 320 824 480 830.2C640 836.3 800 830.7 960 829.8C1120 829 1280 833 1440 823C1600 813 1760 789 1840 777L1920 765L1920 1081L1840 1081C1760 1081 1600 1081 1440 1081C1280 1081 1120 1081 960 1081C800 1081 640 1081 480 1081C320 1081 160 1081 80 1081L0 1081Z" fill="#5b5b5b"></path><path d="M0 797L80 795.3C160 793.7 320 790.3 480 778C640 765.7 800 744.3 960 731.7C1120 719 1280 715 1440 728.8C1600 742.7 1760 774.3 1840 790.2L1920 806L1920 1081L1840 1081C1760 1081 1600 1081 1440 1081C1280 1081 1120 1081 960 1081C800 1081 640 1081 480 1081C320 1081 160 1081 80 1081L0 1081Z" fill="#696969"></path><path d="M0 876L80 863.7C160 851.3 320 826.7 480 811.8C640 797 800 792 960 792.7C1120 793.3 1280 799.7 1440 791.2C1600 782.7 1760 759.3 1840 747.7L1920 736L1920 1081L1840 1081C1760 1081 1600 1081 1440 1081C1280 1081 1120 1081 960 1081C800 1081 640 1081 480 1081C320 1081 160 1081 80 1081L0 1081Z" fill="#767676"></path><path d="M0 786L80 787.3C160 788.7 320 791.3 480 800.7C640 810 800 826 960 832.5C1120 839 1280 836 1440 828C1600 820 1760 807 1840 800.5L1920 794L1920 1081L1840 1081C1760 1081 1600 1081 1440 1081C1280 1081 1120 1081 960 1081C800 1081 640 1081 480 1081C320 1081 160 1081 80 1081L0 1081Z" fill="#848484"></path><path d="M0 832L80 836.2C160 840.3 320 848.7 480 848.5C640 848.3 800 839.7 960 830.3C1120 821 1280 811 1440 807.5C1600 804 1760 807 1840 808.5L1920 810L1920 1081L1840 1081C1760 1081 1600 1081 1440 1081C1280 1081 1120 1081 960 1081C800 1081 640 1081 480 1081C320 1081 160 1081 80 1081L0 1081Z" fill="#939393"></path><path d="M0 844L80 857.7C160 871.3 320 898.7 480 905.5C640 912.3 800 898.7 960 890C1120 881.3 1280 877.7 1440 877.7C1600 877.7 1760 881.3 1840 883.2L1920 885L1920 1081L1840 1081C1760 1081 1600 1081 1440 1081C1280 1081 1120 1081 960 1081C800 1081 640 1081 480 1081C320 1081 160 1081 80 1081L0 1081Z" fill="#a2a2a2"></path><path d="M0 881L80 892.5C160 904 320 927 480 928.5C640 930 800 910 960 900.8C1120 891.7 1280 893.3 1440 892.5C1600 891.7 1760 888.3 1840 886.7L1920 885L1920 1081L1840 1081C1760 1081 1600 1081 1440 1081C1280 1081 1120 1081 960 1081C800 1081 640 1081 480 1081C320 1081 160 1081 80 1081L0 1081Z" fill="#b1b1b1"></path><path d="M0 970L80 958C160 946 320 922 480 908.8C640 895.7 800 893.3 960 893.7C1120 894 1280 897 1440 899.7C1600 902.3 1760 904.7 1840 905.8L1920 907L1920 1081L1840 1081C1760 1081 1600 1081 1440 1081C1280 1081 1120 1081 960 1081C800 1081 640 1081 480 1081C320 1081 160 1081 80 1081L0 1081Z" fill="#c0c0c0"></path><path d="M0 952L80 953.5C160 955 320 958 480 962.5C640 967 800 973 960 967.5C1120 962 1280 945 1440 939.7C1600 934.3 1760 940.7 1840 943.8L1920 947L1920 1081L1840 1081C1760 1081 1600 1081 1440 1081C1280 1081 1120 1081 960 1081C800 1081 640 1081 480 1081C320 1081 160 1081 80 1081L0 1081Z" fill="#cfcfcf"></path><path d="M0 997L80 994.3C160 991.7 320 986.3 480 987.2C640 988 800 995 960 998.5C1120 1002 1280 1002 1440 996.3C1600 990.7 1760 979.3 1840 973.7L1920 968L1920 1081L1840 1081C1760 1081 1600 1081 1440 1081C1280 1081 1120 1081 960 1081C800 1081 640 1081 480 1081C320 1081 160 1081 80 1081L0 1081Z" fill="#dfdfdf"></path><path d="M0 1000L80 1000.8C160 1001.7 320 1003.3 480 1005.8C640 1008.3 800 1011.7 960 1011C1120 1010.3 1280 1005.7 1440 1007.3C1600 1009 1760 1017 1840 1021L1920 1025L1920 1081L1840 1081C1760 1081 1600 1081 1440 1081C1280 1081 1120 1081 960 1081C800 1081 640 1081 480 1081C320 1081 160 1081 80 1081L0 1081Z" fill="#efefef"></path><path d="M0 1032L80 1033C160 1034 320 1036 480 1035.8C640 1035.7 800 1033.3 960 1030C1120 1026.7 1280 1022.3 1440 1024C1600 1025.7 1760 1033.3 1840 1037.2L1920 1041L1920 1081L1840 1081C1760 1081 1600 1081 1440 1081C1280 1081 1120 1081 960 1081C800 1081 640 1081 480 1081C320 1081 160 1081 80 1081L0 1081Z" fill="#ffffff"></path></svg>