<svg width="7680" height="1081" viewBox="0 0 7680 1081" fill="none" xmlns="http://www.w3.org/2000/svg">
<path d="M7680 0H0V1080L7680 1081V0Z" fill="#001220"/>
<path d="M0 745L80 733.2C160 721.3 320 697.7 480 688.7C640 679.7 800 685.3 960 704.7C1120 724 1280 757 1440 775.3C1600 793.7 1760 797.3 1840 799.2L1920 801V1081H1840C1760 1081 1600 1081 1440 1081C1280 1081 1120 1081 960 1081C800 1081 640 1081 480 1081C320 1081 160 1081 80 1081H0V745Z" fill="#5B5B5B"/>
<path d="M0 847L80 844.2C160 841.3 320 835.7 480 827.3C640 819 800 808 960 797C1120 786 1245.5 702.3 1405.5 685C1570 667.213 1597 669 1682.5 669L1920 693V1081H1840C1760 1081 1600 1081 1440 1081C1280 1081 1120 1081 960 1081C800 1081 640 1081 480 1081C320 1081 160 1081 80 1081H0V847Z" fill="#5B5B5B"/>
<path d="M0 818L80 814.7C160 811.3 320 804.7 480 806.5C640 808.3 800 818.7 960 808.8C1120 799 1280 769 1440 752.5C1600 736 1760 733 1840 731.5L1920 730V1081H1840C1760 1081 1600 1081 1440 1081C1280 1081 1120 1081 960 1081C800 1081 640 1081 480 1081C320 1081 160 1081 80 1081H0V818Z" fill="#767676"/>
<path d="M0 867L80 869.2C160 871.3 320 875.7 480 861.5C640 847.3 800 814.7 960 814.3C1120 814 1280 846 1440 860.7C1600 875.3 1760 872.7 1840 871.3L1920 870V1081H1840C1760 1081 1600 1081 1440 1081C1280 1081 1120 1081 960 1081C800 1081 640 1081 480 1081C320 1081 160 1081 80 1081H0V867Z" fill="#848484"/>
<path d="M0 915L80 899.2C160 883.3 320 851.7 480 843.5C640 835.3 800 850.7 960 848.8C1120 847 1280 828 1440 820.8C1600 813.7 1760 818.3 1840 820.7L1920 823V1081H1840C1760 1081 1600 1081 1440 1081C1280 1081 1120 1081 960 1081C800 1081 640 1081 480 1081C320 1081 160 1081 80 1081H0V915Z" fill="#939393"/>
<path d="M0 923L80 922.3C160 921.7 320 920.3 480 915C640 909.7 800 900.3 960 885.5C1120 870.7 1280 850.3 1440 848.7C1600 847 1760 864 1840 872.5L1920 885V1081H1840C1760 1081 1600 1081 1440 1081C1280 1081 1120 1081 960 1081C800 1081 640 1081 480 1081C320 1081 160 1081 80 1081H0V923Z" fill="#A2A2A2"/>
<path d="M0 891L80 890.5C160 890 320 889 480 892.5C640 896 800 904 960 911.5C1120 919 1280 926 1440 920.8C1600 915.7 1760 898.3 1840 889.7L1920 885V1081H1840C1760 1081 1600 1081 1440 1081C1280 1081 1120 1081 960 1081C800 1081 640 1081 480 1081C320 1081 160 1081 80 1081H0V891Z" fill="#B1B1B1"/>
<path d="M0 1015L141 996C221 992.5 445.5 955.3 605.5 941.5C765.5 927.6 800 906.7 960 900.2C1120 893.7 1280 930.3 1440 933.2C1600 936 1760 934 1840 933L1920 932V1081H1840C1760 1081 1600 1081 1440 1081C1280 1081 1120 1081 960 1081C800 1081 640 1081 480 1081C320 1081 160 1081 80 1081H0V1015Z" fill="#C0C0C0"/>
<path d="M0 991L80 987.7C160 984.3 320 977.7 480 973.5C640 969.3 800 967.7 960 966.7C1120 965.7 1280 965.3 1440 965.5C1600 965.7 1760 966.3 1840 966.7L1920 965V1081H1840C1760 1081 1600 1081 1440 1081C1280 1081 1120 1081 960 1081C800 1081 640 1081 480 1081C320 1081 160 1081 80 1081H0V991Z" fill="#CFCFCF"/>
<path d="M0 989L80 983.5C160 978 320 967 480 961C640 955 800 954 960 955.5C1120 957 1280 961 1440 961.8C1600 962.7 1658.5 960 1741.5 975C1777.1 981.434 1856.21 984.363 1920 985V1081H1840C1760 1081 1600 1081 1440 1081C1280 1081 1120 1081 960 1081C800 1081 640 1081 480 1081C320 1081 160 1081 80 1081H0V989Z" fill="#DFDFDF"/>
<path d="M0 1026L80 1018.7C160 1011.3 320 996.7 480 996C640 995.3 800 1008.7 960 1011.2C1120 1013.7 1280 1005.3 1440 1002.3C1600 999.3 1760 1001.7 1840 1002.8L1920 1005V1081H1840C1760 1081 1600 1081 1440 1081C1280 1081 1120 1081 960 1081C800 1081 640 1081 480 1081C320 1081 160 1081 80 1081H0V1026Z" fill="#EFEFEF"/>
<path d="M0 1026L80 1025C160 1024 320 1022 480 1023.3C640 1024.7 800 1029.3 960 1031.7C1120 1034 1280 1034 1440 1034.3C1600 1034.7 1711.87 1073.92 1787.5 1042.5C1818.68 1029.55 1888.22 1019.77 1920 1023V1081H1840C1760 1081 1600 1081 1440 1081C1280 1081 1120 1081 960 1081C800 1081 640 1081 480 1081C320 1081 160 1081 80 1081H0V1026Z" fill="white"/>
<path d="M1920 693L2113 718C2193 730.6 2240 735.7 2400 744.8C2560 754 2720 747 2880 749.5C3040 752 3200 764 3360 765.5C3520 767 3680 758 3760 753.5L3840 749V1081H3760C3680 1081 3520 1081 3360 1081C3200 1081 3040 1081 2880 1081C2720 1081 2560 1081 2400 1081C2240 1081 2080 1081 2000 1081H1920V693Z" fill="#5B5B5B"/>
<path d="M1920 817L2000 807.7C2080 798.3 2240 779.7 2400 767.7C2560 755.7 2720 750.3 2880 756.7C3040 763 3200 781 3360 773.2C3520 765.3 3680 731.7 3760 714.8L3840 698V1081H3760C3680 1081 3520 1081 3360 1081C3200 1081 3040 1081 2880 1081C2720 1081 2560 1081 2400 1081C2240 1081 2080 1081 2000 1081H1920V817Z" fill="#696969"/>
<path d="M1920 730L2084 735.5C2227.5 735.5 2240 771 2400 768C2560 765 2720 766 2880 783.7C3040 801.3 3200 835.7 3360 846.7C3520 857.7 3680 845.3 3760 839.2L3840 833V1081H3760C3680 1081 3520 1081 3360 1081C3200 1081 3040 1081 2880 1081C2720 1081 2560 1081 2400 1081C2240 1081 2080 1081 2000 1081H1920V730Z" fill="#767676"/>
<path d="M1920 828.5L2076 834.5C2173.5 823 2240 771.3 2400 779.2C2560 787 2720 812 2880 813.5C3040 815 3200 793 3360 801.5C3520 810 3748 773.5 3840 770V1081H3760C3680 1081 3520 1081 3360 1081C3200 1081 3040 1081 2880 1081C2720 1081 2560 1081 2400 1081C2240 1081 2080 1081 2000 1081H1920V828.5Z" fill="#848484"/>
<path d="M1920 823L2007.5 817C2090 817 2240 818 2400 822.2C2560 826.3 2720 828.7 2880 836C3040 843.3 3200 855.7 3360 867.3C3520 879 3680 890 3760 895.5L3840 901V1081H3760C3680 1081 3520 1081 3360 1081C3200 1081 3040 1081 2880 1081C2720 1081 2560 1081 2400 1081C2240 1081 2080 1081 2000 1081H1920V823Z" fill="#939393"/>
<path d="M1920 885L2000 895.5C2080 900.6 2240 889.7 2400 895.3C2560 901 2720 902 2880 895.5C3040 889 3200 875 3360 868.7C3520 862.3 3680 863.7 3760 864.3L3840 865V1081H3760C3680 1081 3520 1081 3360 1081C3200 1081 3040 1081 2880 1081C2720 1081 2560 1081 2400 1081C2240 1081 2080 1081 2000 1081H1920V885Z" fill="#A2A2A2"/>
<path d="M1920 885L1990.5 881C2096.5 876.5 2240 894.3 2400 884.2C2560 874 2720 865 2880 868.3C3040 871.7 3200 887.3 3360 901.8C3520 916.3 3680 929.7 3760 936.3L3840 943V1081H3760C3680 1081 3520 1081 3360 1081C3200 1081 3040 1081 2880 1081C2720 1081 2560 1081 2400 1081C2240 1081 2080 1081 2000 1081H1920V885Z" fill="#B1B1B1"/>
<path d="M1920 932L2000 928.3C2080 924.7 2240 917.3 2400 923.5C2560 929.7 2720 949.3 2880 955.5C3040 961.7 3200 954.3 3360 947.8C3520 941.3 3680 935.7 3760 932.8L3840 930V1081H3760C3680 1081 3520 1081 3360 1081C3200 1081 3040 1081 2880 1081C2720 1081 2560 1081 2400 1081C2240 1081 2080 1081 2000 1081H1920V932Z" fill="#C0C0C0"/>
<path d="M1920 965L2000 963.3C2080 961.7 2240 958.3 2400 957.8C2560 957.3 2720 959.7 2880 958.5C3040 957.3 3200 952.7 3360 947C3520 941.3 3680 934.7 3760 931.3L3840 929V1081H3760C3680 1081 3520 1081 3360 1081C3200 1081 3040 1081 2880 1081C2720 1081 2560 1081 2400 1081C2240 1081 2080 1081 2000 1081H1920V965Z" fill="#CFCFCF"/>
<path d="M1920 985L2000 986.2C2080 987.3 2240 989.7 2400 990C2560 990.3 2720 988.7 2880 990.8C3040 993 3200 999 3360 995.5C3520 992 3665.5 952.5 3748 961.5L3840 969.5V1081H3760C3680 1081 3520 1081 3360 1081C3200 1081 3040 1081 2880 1081C2720 1081 2560 1081 2400 1081C2240 1081 2080 1081 2000 1081H1920V985Z" fill="#DFDFDF"/>
<path d="M1920 1005L2000 1003.3C2080 1001.7 2240 998.3 2400 996.8C2560 995.3 2720 995.7 2880 994.2C3040 992.7 3200 989.3 3360 991.7C3520 994 3680 1002 3760 1006L3840 1010V1081H3760C3680 1081 3520 1081 3360 1081C3200 1081 3040 1081 2880 1081C2720 1081 2560 1081 2400 1081C2240 1081 2080 1081 2000 1081H1920V1005Z" fill="#EFEFEF"/>
<path d="M1920 1023L2000 1022.5C2080 1022 2240 1021 2400 1021.5C2560 1022 2720 1024 2880 1023.3C3040 1022.7 3200 1019.3 3360 1019.2C3520 1019 3680 1022 3760 1023.5L3840 1025V1081H3760C3680 1081 3520 1081 3360 1081C3200 1081 3040 1081 2880 1081C2720 1081 2560 1081 2400 1081C2240 1081 2080 1081 2000 1081H1920V1023Z" fill="white"/>
<path d="M3840 770L3920 710.3C4000 728.7 4160 765.3 4320 773.5C4480 781.7 4640 761.3 4800 728.5C4960 695.7 5016 680.5 5176 679C5336 677.5 5434 691.9 5514 713C5610.08 748.549 5663.94 759.427 5760 745V1081H5680C5600 1081 5440 1081 5280 1081C5120 1081 4960 1081 4800 1081C4640 1081 4480 1081 4320 1081C4160 1081 4000 1081 3920 1081H3840V770Z" fill="#5B5B5B"/>
<path d="M3840 698L3920 679.5C4081.5 648.8 4160 684 4320 706.7C4480 729.3 4640 771.7 4800 767C4960 762.3 5120 710.7 5280 716.2C5440 721.7 5600 784.3 5680 815.7L5760 847V1081H5680C5600 1081 5440 1081 5280 1081C5120 1081 4960 1081 4800 1081C4640 1081 4480 1081 4320 1081C4160 1081 4000 1081 3920 1081H3840V698Z" fill="#696969"/>
<path d="M3840 841L3920 834C4000 827 4160 813 4320 824.3C4480 835.7 4640 872.3 4800 896.2C4960 920 5120 931 5280 912.3C5440 893.7 5545.5 832.5 5641 822C5679.14 818.02 5703.02 816.513 5760 818V1081H5680C5600 1081 5440 1081 5280 1081C5120 1081 4960 1081 4800 1081C4640 1081 4480 1081 4320 1081C4160 1081 4000 1081 3920 1081H3840V841Z" fill="#767676"/>
<path d="M3840 770C3930 770 4160 861.3 4320 869.5C4480 877.7 4640 834.3 4800 808.5C4960 782.7 4976.5 756.5 5138 778.5C5372.5 822.2 5274 825 5427 847L5760 867V1081H5680C5600 1081 5440 1081 5280 1081C5120 1081 4960 1081 4800 1081C4640 1081 4480 1081 4320 1081C4160 1081 4000 1081 3920 1081H3840V770Z" fill="#848484"/>
<path d="M3840 889.5L3943.5 880C4023.5 881 4160 862 4320 853.2C4480 844.3 4640 824.7 4800 818.3C4960 812 5120 819 5280 839.2C5440 859.3 5600 892.7 5680 909.3L5760 926V1081H5680C5600 1081 5440 1081 5280 1081C5120 1081 4960 1081 4800 1081C4640 1081 4480 1081 4320 1081C4160 1081 4000 1081 3920 1081H3840V889.5Z" fill="#939393"/>
<path d="M3840 865L3954 872C4036 868 4160 859.7 4320 868.2C4480 876.7 4640 858.3 4800 841.7C4960 825 5120 810 5280 822.2C5440 834.3 5600 873.7 5680 893.3L5760 913V1081H5680C5600 1081 5440 1081 5280 1081C5120 1081 4960 1081 4800 1081C4640 1081 4480 1081 4320 1081C4160 1081 4000 1081 3920 1081H3840V865Z" fill="#A2A2A2"/>
<path d="M3840 938.3L3920 913C3994.5 885 4160 889 4320 900.2C4480 911.3 4640 949.7 4800 962C4960 974.3 5120 960.7 5280 951.8C5440 943 5552 895.3 5632 893.3L5760 891V1081H5680C5600 1081 5440 1081 5280 1081C5120 1081 4960 1081 4800 1081C4640 1081 4480 1081 4320 1081C4160 1081 4000 1081 3920 1081H3840V938.3Z" fill="#B1B1B1"/>
<path d="M3840 982L3920 962.7C4000 943.3 4160 904.7 4320 884C4480 863.3 4640 860.7 4800 881.2C4960 901.7 5120 945.3 5280 969.2C5440 993 5600 997 5680 999L5760 1001V1081H5680C5600 1081 5440 1081 5280 1081C5120 1081 4960 1081 4800 1081C4640 1081 4480 1081 4320 1081C4160 1081 4000 1081 3920 1081H3840V982Z" fill="#C0C0C0"/>
<path d="M3840 929H3920C3999 929 4160 966.3 4320 968.2C4480 970 4640 955 4800 946.7C4960 938.3 5120 936.7 5280 948.2C5440 959.7 5600 984.3 5680 996.7L5760 1012V1081H5680C5600 1081 5440 1081 5280 1081C5120 1081 4960 1081 4800 1081C4640 1081 4480 1081 4320 1081C4160 1081 4000 1081 3920 1081H3840V929Z" fill="#CFCFCF"/>
<path d="M3840 969.5L3920 982C3998.5 994.5 4160 994.7 4320 994.5C4480 994.3 4640 993.7 4800 994.8C4960 996 5120 999 5280 1000.5C5440 1002 5546.5 983 5626.5 983C5670.5 983 5716.85 992.985 5760 989V1081H5680C5600 1081 5440 1081 5280 1081C5120 1081 4960 1081 4800 1081C4640 1081 4480 1081 4320 1081C4160 1081 4000 1081 3920 1081H3840V969.5Z" fill="#DFDFDF"/>
<path d="M3840 1010L3920 1011.5C3998 1007.5 4160 1018 4320 1007.8C4480 997.7 4640 982.3 4800 974.8C4960 967.3 5120 967.7 5280 969.5C5440 971.3 5536 1018 5622.5 1018L5760 1026V1081H5680C5600 1081 5440 1081 5280 1081C5120 1081 4960 1081 4800 1081C4640 1081 4480 1081 4320 1081C4160 1081 4000 1081 3920 1081H3840V1010Z" fill="#EFEFEF"/>
<path d="M3840 1025L3899.5 1030.5L3977.5 1039.5C4083.5 1063 4160 1025 4320 1023C4480 1021 4640 1021 4800 1018.5C4960 1016 5120 1011 5280 1013.5C5440 1016 5579.5 1027.5 5670.5 1026H5760V1081H5680C5600 1081 5440 1081 5280 1081C5120 1081 4960 1081 4800 1081C4640 1081 4480 1081 4320 1081C4160 1081 4000 1081 3920 1081H3840V1025Z" fill="white"/>
<path d="M5760 745L5840 733.2C5920 721.3 6080 697.7 6240 688.7C6400 679.7 6560 685.3 6720 704.7C6880 724 7040 757 7200 775.3C7360 793.7 7520 797.3 7600 799.2L7680 801V1081H7600C7520 1081 7360 1081 7200 1081C7040 1081 6880 1081 6720 1081C6560 1081 6400 1081 6240 1081C6080 1081 5920 1081 5840 1081H5760V745Z" fill="#5B5B5B"/>
<path d="M5760 847L5840 844.2C5920 841.3 6080 835.7 6240 827.3C6400 819 6560 808 6720 797C6880 786 7005.5 702.3 7165.5 685C7330 667.213 7357 669 7442.5 669L7680 693V1081H7600C7520 1081 7360 1081 7200 1081C7040 1081 6880 1081 6720 1081C6560 1081 6400 1081 6240 1081C6080 1081 5920 1081 5840 1081H5760V847Z" fill="#5B5B5B"/>
<path d="M5760 818L5840 814.7C5920 811.3 6080 804.7 6240 806.5C6400 808.3 6560 818.7 6720 808.8C6880 799 7040 769 7200 752.5C7360 736 7520 733 7600 731.5L7680 730V1081H7600C7520 1081 7360 1081 7200 1081C7040 1081 6880 1081 6720 1081C6560 1081 6400 1081 6240 1081C6080 1081 5920 1081 5840 1081H5760V818Z" fill="#767676"/>
<path d="M5760 867L5840 869.2C5920 871.3 6080 875.7 6240 861.5C6400 847.3 6560 814.7 6720 814.3C6880 814 7040 846 7200 860.7C7360 875.3 7520 872.7 7600 871.3L7680 870V1081H7600C7520 1081 7360 1081 7200 1081C7040 1081 6880 1081 6720 1081C6560 1081 6400 1081 6240 1081C6080 1081 5920 1081 5840 1081H5760V867Z" fill="#848484"/>
<path d="M5760 915L5840 899.2C5920 883.3 6080 851.7 6240 843.5C6400 835.3 6560 850.7 6720 848.8C6880 847 7040 828 7200 820.8C7360 813.7 7520 818.3 7600 820.7L7680 823V1081H7600C7520 1081 7360 1081 7200 1081C7040 1081 6880 1081 6720 1081C6560 1081 6400 1081 6240 1081C6080 1081 5920 1081 5840 1081H5760V915Z" fill="#939393"/>
<path d="M5760 923L5840 922.3C5920 921.7 6080 920.3 6240 915C6400 909.7 6560 900.3 6720 885.5C6880 870.7 7040 850.3 7200 848.7C7360 847 7520 864 7600 872.5L7680 885V1081H7600C7520 1081 7360 1081 7200 1081C7040 1081 6880 1081 6720 1081C6560 1081 6400 1081 6240 1081C6080 1081 5920 1081 5840 1081H5760V923Z" fill="#A2A2A2"/>
<path d="M5760 891L5840 890.5C5920 890 6080 889 6240 892.5C6400 896 6560 904 6720 911.5C6880 919 7040 926 7200 920.8C7360 915.7 7520 898.3 7600 889.7L7680 885V1081H7600C7520 1081 7360 1081 7200 1081C7040 1081 6880 1081 6720 1081C6560 1081 6400 1081 6240 1081C6080 1081 5920 1081 5840 1081H5760V891Z" fill="#B1B1B1"/>
<path d="M5760 1015L5901 996C5981 992.5 6205.5 955.3 6365.5 941.5C6525.5 927.6 6560 906.7 6720 900.2C6880 893.7 7040 930.3 7200 933.2C7360 936 7520 934 7600 933L7680 932V1081H7600C7520 1081 7360 1081 7200 1081C7040 1081 6880 1081 6720 1081C6560 1081 6400 1081 6240 1081C6080 1081 5920 1081 5840 1081H5760V1015Z" fill="#C0C0C0"/>
<path d="M5760 991L5840 987.7C5920 984.3 6080 977.7 6240 973.5C6400 969.3 6560 967.7 6720 966.7C6880 965.7 7040 965.3 7200 965.5C7360 965.7 7520 966.3 7600 966.7L7680 965V1081H7600C7520 1081 7360 1081 7200 1081C7040 1081 6880 1081 6720 1081C6560 1081 6400 1081 6240 1081C6080 1081 5920 1081 5840 1081H5760V991Z" fill="#CFCFCF"/>
<path d="M5760 989L5840 983.5C5920 978 6080 967 6240 961C6400 955 6560 954 6720 955.5C6880 957 7040 961 7200 961.8C7360 962.7 7418.5 960 7501.5 975C7537.1 981.434 7616.21 984.363 7680 985V1081H7600C7520 1081 7360 1081 7200 1081C7040 1081 6880 1081 6720 1081C6560 1081 6400 1081 6240 1081C6080 1081 5920 1081 5840 1081H5760V989Z" fill="#DFDFDF"/>
<path d="M5760 1026L5840 1018.7C5920 1011.3 6080 996.7 6240 996C6400 995.3 6560 1008.7 6720 1011.2C6880 1013.7 7040 1005.3 7200 1002.3C7360 999.3 7520 1001.7 7600 1002.8L7680 1005V1081H7600C7520 1081 7360 1081 7200 1081C7040 1081 6880 1081 6720 1081C6560 1081 6400 1081 6240 1081C6080 1081 5920 1081 5840 1081H5760V1026Z" fill="#EFEFEF"/>
<path d="M5760 1026L5840 1025C5920 1024 6080 1022 6240 1023.3C6400 1024.7 6560 1029.3 6720 1031.7C6880 1034 7040 1034 7200 1034.3C7360 1034.7 7471.87 1073.92 7547.5 1042.5C7578.68 1029.55 7648.22 1019.77 7680 1023V1081H7600C7520 1081 7360 1081 7200 1081C7040 1081 6880 1081 6720 1081C6560 1081 6400 1081 6240 1081C6080 1081 5920 1081 5840 1081H5760V1026Z" fill="white"/>
</svg>
